# xmcd CD database file
#
# Track frame offsets:
#	187
#	13902
#	28910
#	44242
#	58832
#	71042
#	84197
#	97552
#	112095
#	126287
#	141647
#	156502
#	170757
#	184185
#	196950
#	213285
#	228632
#	244727
#	259275
#	273270
#	287047
#	299215
#	312800
#	325027
#
# Disc length: 4507 seconds
#
# Revision: 1
# Processed by: cddbd v1.5.2PL0 Copyright (c) Steve Scherf et al.
# Submitted via: CDex 1.70beta2
#
DISCID=81119918
DTITLE=Various Artist - The Blues: 1927-1946 [CD2]
DYEAR=1900
DGENRE=
TTITLE0=Tommy McClennan-Whiskey Head Woman
TTITLE1=Tommy McClennan-Des'e My Blues
TTITLE2=Big Joe Williams-Baby Please Don't Go
TTITLE3=Big Joe Williams-Highway 49
TTITLE4=Big Joe Williams-Peach Orchard Mama
TTITLE5=Robert Petway-Catfish Blues
TTITLE6=Robert Lockwood-Take A Little Walk With Me
TTITLE7=Leroy Carr-Rocks In My Bed
TTITLE8=Leroy Carr-Six Cold Feet In The Ground
TTITLE9=Peetie Wheatstraw-Devil's Son-In-Law
TTITLE10=Peetie Wheatstraw-Peetie Wheatstraw
TTITLE11=Little Brother Montgomery-Vicksburg Blues Part 3
TTITLE12=Big Maceo-Worried Life Blues
TTITLE13=Big Maceo-Detroit Jump
TTITLE14=Joe Pullum With Andy Boy-Hard Working Man Blues
TTITLE15=Big Bill Broonzy-Friendless Blues
TTITLE16=Big Bill Broonzy-The Southern Blues
TTITLE17=Tampa Red-Kingfish Blues
TTITLE18=Robert Lee McCoy-Tough Luck
TTITLE19=Sonny Boy Williamson-Good Morning Schoolgirl
TTITLE20=Sonny Boy Williamson-Elevator Woman
TTITLE21=Sonny Boy Williamson-Early In The Morning
TTITLE22=Jazz Gillum-Key To The Highway
TTITLE23=Arthur "Big Boy" Crudup-That's All Right
EXTD=
EXTT0=
EXTT1=
EXTT2=
EXTT3=
EXTT4=
EXTT5=
EXTT6=
EXTT7=
EXTT8=
EXTT9=
EXTT10=
EXTT11=
EXTT12=
EXTT13=
EXTT14=
EXTT15=
EXTT16=
EXTT17=
EXTT18=
EXTT19=
EXTT20=
EXTT21=
EXTT22=
EXTT23=
PLAYORDER=
